<?xml version="1.0" encoding="UTF-8"?>
<svg version="1.1" viewBox="0 0 100 100" xmlns="http://www.w3.org/2000/svg"><g transform="scale(.998 .99108)"><circle cx="79.9" cy="90" r="2.5"/><path d="m53.9 78.6h-43c-2.8 0-5.1-2.3-5.1-5.1v-35.9h71.2v17c1-0.1 1.9-0.2 2.9-0.2s1.9 0.1 2.9 0.2v-32.5c0-6-4.9-10.9-10.9-10.9h-5.1v-8.3c0-1.6-1.3-2.9-2.9-2.9s-2.9 1.3-2.9 2.9v8.3h-16.7v-8.3c0-1.6-1.3-2.9-2.9-2.9s-2.9 1.3-2.9 2.9v8.3h-16.7v-8.3c0-1.6-1.3-2.9-2.9-2.9s-2.9 1.3-2.9 2.9v8.3h-5.1c-6 0-10.9 4.9-10.9 10.9v51.4c0 6 4.9 10.9 10.9 10.9h43.2c-0.2-1.2-0.3-2.5-0.3-3.8 0-0.7 0-1.4 0.1-2zm-48.1-56.5c0-2.8 2.3-5.1 5.1-5.1h5.1v4c0 1.6 1.3 2.9 2.9 2.9s2.9-1.3 2.9-2.9v-4h16.7v4c0 1.6 1.3 2.9 2.9 2.9s2.9-1.3 2.9-2.9v-4h16.7v4c0 1.6 1.3 2.9 2.9 2.9s2.9-1.3 2.9-2.9v-4h5.1c2.8 0 5.1 2.3 5.1 5.1v9.7h-71.2z"/><path d="m22.3 41.9c-5.6 0-10.2 4.6-10.2 10.1s4.6 10.1 10.2 10.1 10.2-4.6 10.2-10.1-4.6-10.1-10.2-10.1zm0 14.5c-2.4 0-4.3-2-4.3-4.4s2-4.4 4.3-4.4 4.3 2 4.3 4.4-1.9 4.4-4.3 4.4z"/><path d="m26.6 66.5h-8.7c-1.6 0-2.9 1.3-2.9 2.9s1.3 2.9 2.9 2.9h8.7c1.6 0 2.9-1.3 2.9-2.9s-1.3-2.9-2.9-2.9z"/><path d="m47.2 66.5h-8.7c-1.6 0-2.9 1.3-2.9 2.9s1.3 2.9 2.9 2.9h8.7c1.6 0 2.9-1.3 2.9-2.9s-1.3-2.9-2.9-2.9z"/><path d="m47.2 49.2h-8.7c-1.6 0-2.9 1.3-2.9 2.9s1.3 2.9 2.9 2.9h8.7c1.6 0 2.9-1.3 2.9-2.9s-1.3-2.9-2.9-2.9z"/><path d="m67.8 49.2h-8.8c-1.6 0-2.9 1.3-2.9 2.9s1.3 2.9 2.9 2.9h8.7c1.6 0 2.9-1.3 2.9-2.9s-1.2-2.9-2.8-2.9z"/><path d="m85.1 71.7c-1.4-1.2-3.1-1.9-5.3-1.9-2.1 0-3.9 0.6-5.3 1.9s-2.1 3.1-2.1 5.1c0 1.3 1.1 2.4 2.4 2.4s2.4-1.1 2.4-2.4c0-0.9 0.3-1.3 0.6-1.5 0.2-0.2 0.7-0.6 2-0.6 0.9 0 1.6 0.2 2 0.6 0.3 0.2 0.6 0.7 0.6 1.8 0 0.5-0.1 1.2-0.4 1.5-0.2 0.2-0.9 0.5-2.4 0.5-1.3 0-2.4 1.1-2.4 2.4v2.4c0 1.3 1.1 2.4 2.4 2.4s2.4-1.1 2.4-2.4v-0.2c1.2-0.3 2.2-0.7 3-1.3 1-0.8 2.2-2.4 2.2-5.2 0.1-3-1.1-4.6-2.1-5.5z"/><path d="m79.9 60.3c-11.2 0-20.3 9.1-20.3 20.3s9.1 20.3 20.3 20.3 20.3-9.1 20.3-20.3-9.1-20.3-20.3-20.3zm0 34.8c-8 0-14.5-6.5-14.5-14.5s6.5-14.5 14.5-14.5 14.5 6.5 14.5 14.5-6.5 14.5-14.5 14.5z"/></g></svg>